<svg width="1990" height="1983" viewBox="0 0 1990 1983" fill="none" xmlns="http://www.w3.org/2000/svg">
<path d="M248.704 152.123C184.006 209.207 155.535 290.325 173.406 365.729C191.278 441.132 255.59 508.878 342.393 544.38C452.868 589.477 595.095 584.79 686.921 650.839C764.654 706.9 781.568 796.238 798.203 877.814C814.838 959.39 843.514 1049.48 932.245 1094.33C992.217 1124.62 1072.52 1129.82 1120.41 1171.22C1168.99 1213.36 1165.89 1279.55 1137.15 1331.44C1108.41 1383.33 1058.97 1425.89 1019.07 1473.02C898.436 1615.72 871.155 1804.7 947.865 1965.75" stroke="#630000" stroke-miterlimit="10"/>
<path d="M256.931 144.418C221.345 176.796 197.916 216.716 188.424 258.212C180.552 292.45 182.016 327.701 192.892 360.835C195.464 368.448 198.436 375.836 201.811 383.11C219.655 420.647 249.712 454.181 287.119 483.587C312.742 503.718 341.165 521.963 371.541 536.287C388.432 544.281 405.708 551.189 423.24 557.337C471.08 574.143 520.57 585.308 567.026 600.306C610.626 614.17 651.725 631.532 686.416 660.126C689.844 662.975 693.138 665.827 696.435 668.894C732.701 702.313 755.629 744.61 773.827 786.672C787.933 819.207 798.253 851.489 808.277 882.374C809.28 885.484 810.283 888.594 811.286 891.704C825.007 932.661 842.678 975.38 871.703 1011.52C893.406 1038.74 922.066 1062.48 959.013 1081.65C1017.63 1111.95 1092.72 1119.73 1137.1 1161.2C1182.3 1203.08 1179.04 1267.66 1152.17 1318.75C1134.3 1352.75 1107.99 1382.9 1081.82 1412.95C1068.59 1428.08 1055.37 1443.21 1043.24 1458.76C994.309 1521.48 963.895 1592.5 952.813 1664.77C939.09 1754.78 955.369 1846.29 998.859 1927.05" stroke="#630000" stroke-miterlimit="10"/>
<path d="M265.16 136.822C229.458 170.173 207.274 211.688 200.225 253.894C194.39 288.741 198.688 323.939 212.516 356.048C215.623 363.435 219.267 370.595 223.446 377.53C244.637 413.495 277.742 443.951 316.768 473.327C343.469 493.33 371.91 512.546 400.966 528.513C417.198 537.383 433.547 545.279 449.748 552.422C494.128 571.99 537.87 586.282 579.104 603.642C617.889 619.969 654.302 639.468 686.321 669.621C689.482 672.583 692.509 675.656 695.539 678.836C729 713.926 753.034 757.605 774.582 798.309C791.369 829.824 805.147 859.237 818.355 887.042C819.622 889.823 821.023 892.602 822.292 895.491C840.124 932.381 861.633 970.928 893.426 1003.46C917.374 1027.94 948.422 1049.37 985.785 1069.17C1043.06 1099.51 1112.65 1109.98 1153.79 1151.4C1195.35 1193.24 1192.19 1256.09 1167.2 1306.39C1150.67 1339.82 1126.38 1369.72 1102.36 1399.51C1090.22 1414.52 1078.21 1429.52 1067.28 1444.83C1023.2 1506.71 997.614 1576.01 991.201 1645.18C983.211 1731.31 1005.18 1816.56 1049.73 1888.77" stroke="#630000" stroke-miterlimit="10"/>
<path d="M273.39 129.117C237.573 163.549 216.496 206.554 211.891 249.469C208.091 284.818 215.226 320.072 231.872 351.265C235.65 358.424 239.963 365.248 244.678 371.958C269.213 406.241 305.235 433.839 345.877 462.97C373.791 482.842 401.982 503.141 429.986 520.639C445.56 530.383 460.845 539.162 475.713 547.301C516.499 569.632 554.625 586.834 590.776 606.77C624.608 625.454 656.47 647.087 685.685 678.911C688.579 682.093 691.474 685.276 694.235 688.57C725.434 725.427 750.441 770.598 775.474 809.944C795.078 840.435 812.311 866.871 828.569 891.706C830.235 894.157 831.768 896.718 833.434 899.168C855.108 932.103 880.588 966.369 915.42 995.283C941.475 1016.92 975.048 1036.14 1012.83 1056.59C1068.75 1086.84 1133 1100.1 1170.76 1141.48C1208.8 1183.17 1205.61 1244.29 1182.5 1293.92C1167.18 1326.89 1144.91 1356.43 1123.04 1385.97C1112.11 1400.84 1101.31 1415.61 1091.6 1430.78C1052.36 1491.82 1031.6 1559.31 1029.86 1625.47C1027.74 1707.83 1055.4 1786.61 1100.86 1850.28" stroke="#630000" stroke-miterlimit="10"/>
<path d="M281.618 121.413C245.685 156.926 225.852 201.418 223.69 245.044C221.927 281.002 231.896 316.203 251.361 346.482C255.81 353.412 260.793 360.008 266.042 366.384C293.789 399.098 332.997 423.724 375.12 452.611C404.111 472.355 432.322 493.733 459.002 512.657C473.915 523.169 488.275 533.044 501.812 542.179C539.006 567.382 571.514 587.493 602.445 609.899C631.323 630.832 658.635 654.708 685.181 688.199C687.808 691.495 690.436 694.898 692.932 698.412C721.733 737.04 747.575 783.598 776.23 821.582C798.515 851.053 819.203 874.512 838.512 896.378C840.444 898.607 842.373 900.729 844.305 902.959C869.957 931.936 899.275 962.032 937.143 987.222C965.443 1006.12 1001.4 1022.93 1039.6 1044.12C1094.17 1074.29 1153.07 1090.24 1187.59 1131.67C1222.12 1173.22 1218.9 1232.72 1197.66 1281.45C1183.54 1313.86 1163.29 1343.25 1143.72 1372.42C1133.86 1387.06 1124.28 1401.8 1115.78 1416.74C1081.38 1476.93 1065.45 1542.71 1068.38 1605.77C1071.99 1684.24 1105.34 1756.77 1151.87 1811.9" stroke="#630000" stroke-miterlimit="10"/>
<path d="M289.846 113.706C253.798 150.3 235.071 196.175 235.355 240.618C235.491 277.08 248.43 312.227 270.713 341.59C275.833 348.291 281.352 354.662 287.405 360.699C318.496 391.733 360.622 413.5 404.36 442.141C434.564 461.755 462.658 484.106 488.154 504.671C502.407 516.058 515.706 526.923 527.911 537.054C561.645 565.018 588.402 588.04 614.249 613.022C638.31 636.31 660.939 662.43 684.812 697.482C687.173 700.998 689.534 704.515 691.896 708.139C718.03 748.542 745.113 796.48 777.118 833.107C802.22 861.555 826.229 882.039 848.721 900.825C850.916 902.727 853.112 904.628 855.443 906.527C885.207 931.543 918.226 957.363 959.133 978.936C989.541 994.986 1028.02 1009.59 1066.64 1031.42C1119.86 1061.62 1173.4 1080.15 1204.55 1121.54C1235.56 1162.93 1232.31 1220.71 1212.95 1268.75C1200.18 1300.71 1181.81 1329.75 1164.52 1358.66C1155.88 1373.17 1147.37 1387.67 1140.08 1402.37C1110.67 1461.71 1099.44 1525.79 1106.89 1585.74C1116.38 1660.44 1155.41 1726.5 1202.86 1773.19" stroke="#630000" stroke-miterlimit="10"/>
<path d="M297.935 106.006C261.77 143.573 244.152 191.045 247.015 236.196C249.187 273.268 264.961 308.361 290.197 336.806C295.989 343.28 302.178 349.422 308.765 355.126C343.202 384.587 388.379 403.385 433.733 431.78C465.017 451.375 492.994 474.698 517.438 496.793C530.897 509.058 543.404 520.909 554.277 532.035C584.417 562.763 605.557 588.695 626.188 616.362C645.295 641.9 663.374 670.262 684.445 707.092C686.538 710.721 688.633 714.458 690.729 718.303C714.463 760.369 742.385 809.802 778.01 845.067C805.791 872.386 833.122 890.004 858.8 905.818C861.394 907.388 863.854 908.961 866.451 910.639C900.192 931.698 937.048 953.239 980.993 971.196C1013.51 984.51 1054.51 996.696 1093.55 1019.28C1145.55 1049.38 1193.61 1070.71 1221.38 1112.06C1249.02 1153.3 1245.6 1209.46 1228.11 1256.71C1216.54 1288.11 1200.2 1316.89 1185.2 1345.54C1177.64 1359.93 1170.48 1374.3 1164.4 1388.76C1139.83 1447.26 1133.42 1509.52 1145.55 1566.36C1160.91 1637.18 1205.49 1696.98 1254 1735.13" stroke="#630000" stroke-miterlimit="10"/>
<path d="M306.165 98.3035C269.886 136.952 253.51 185.911 258.817 231.772C263.024 269.345 281.634 304.494 309.687 331.916C316.014 338.164 323.01 344.076 330.266 349.443C368.047 377.224 416.276 393.16 463.111 421.312C495.607 440.776 523.47 465.181 546.59 488.703C559.389 501.735 570.834 514.577 580.375 526.699C606.922 560.298 622.443 589.031 637.856 619.277C652.011 647.172 665.404 677.671 683.941 716.166C685.767 720.016 687.594 723.866 689.558 727.821C710.759 771.66 739.651 822.478 778.762 856.383C809.359 882.679 840.011 897.322 868.874 910.165C871.733 911.407 874.593 912.756 877.452 913.998C915.303 930.989 955.864 948.469 1002.71 962.704C1037.47 973.172 1080.86 983.048 1120.18 1006.27C1170.83 1036.18 1213.54 1060.31 1237.93 1101.72C1262.05 1142.7 1258.61 1197.25 1243 1243.71C1232.63 1274.65 1218.31 1303.18 1205.6 1331.47C1199.12 1345.72 1193.17 1359.86 1188.3 1374.19C1168.58 1431.84 1167 1492.39 1183.79 1546.13C1204.89 1613.17 1255.3 1666.61 1304.72 1696.11" stroke="#630000" stroke-miterlimit="10"/>
<path d="M314.401 90.7042C278.006 130.433 262.739 180.883 270.489 227.453C276.733 265.636 298.312 300.73 329.049 327.239C336.047 333.259 343.576 338.837 351.503 343.976C392.631 370.185 443.775 383.154 492.226 411.06C525.8 430.396 553.681 455.772 575.616 480.933C587.756 494.841 598.139 508.674 606.484 521.789C629.439 558.26 639.475 589.792 649.67 622.615C659.006 652.758 667.714 685.501 683.582 725.663C685.14 729.626 686.701 733.697 688.397 737.765C707.064 783.27 737.064 835.577 779.658 868.016C812.937 893.291 847.044 904.957 878.957 914.83C882.082 915.851 885.204 916.764 888.329 917.785C930.293 930.816 974.422 944.131 1024.44 954.639C1061.31 962.37 1107.22 969.826 1146.96 993.795C1196.39 1023.63 1233.75 1050.44 1254.64 1091.91C1275.24 1132.74 1271.77 1185.67 1258.17 1231.34C1249.14 1261.72 1236.7 1290 1226.29 1318.03C1221.01 1332.15 1216.28 1346.15 1212.49 1360.25C1197.61 1416.95 1200.86 1475.79 1222.32 1526.53C1249.28 1589.69 1305.25 1636.76 1355.73 1657.84" stroke="#630000" stroke-miterlimit="10"/>
<path d="M322.63 82.999C286.121 123.809 271.961 175.748 282.288 222.918C290.566 261.603 314.982 296.752 348.538 322.346C356.206 328.137 364.407 333.487 372.867 338.293C417.205 362.824 471.534 372.821 521.605 400.697C556.257 419.906 584.157 446.359 604.906 473.054C616.387 487.837 625.843 502.657 632.856 516.768C652.217 556.003 656.771 590.441 661.613 625.845C666.13 658.235 670.156 693.331 683.217 735.056C684.51 739.239 685.937 743.42 687.367 747.709C703.634 794.876 734.472 848.678 780.551 879.758C816.647 904.01 854.075 912.702 889.172 919.495C892.695 920.185 896.084 920.877 899.472 921.57C945.411 930.535 993.379 939.679 1046.44 946.571C1085.42 951.566 1133.98 956.599 1174 981.317C1222.22 1011.06 1254.09 1040.57 1271.6 1082.11C1288.83 1122.78 1285.19 1173.99 1273.47 1218.98C1265.65 1248.9 1255.23 1276.82 1247.1 1304.59C1242.9 1318.47 1239.38 1332.35 1236.94 1346.31C1226.9 1402.17 1234.98 1459.3 1261.12 1506.93C1293.81 1566.31 1355.6 1607.02 1407.01 1619.56" stroke="#630000" stroke-miterlimit="10"/>
<path d="M330.859 75.2947C294.234 117.186 281.315 170.504 294.087 218.492C304.403 257.786 331.653 292.883 368.16 317.451C376.499 323.014 385.236 328.139 394.5 332.606C442.184 355.564 499.429 362.594 551.115 390.225C586.98 409.303 614.631 436.84 634.19 464.959C645.012 480.617 653.407 496.428 659.088 511.535C674.856 553.641 673.792 590.881 673.418 628.971C673.117 663.715 672.457 700.948 682.849 744.34C683.873 748.637 685.035 753.038 686.197 757.44C700.067 806.378 731.875 861.565 781.305 891.287C820.082 914.519 860.965 920.234 899.113 924.057C902.9 924.419 906.687 924.78 910.342 925.252C960.391 930.149 1012.06 935.233 1068.16 938.4C1109.25 940.659 1160.33 943.272 1200.77 968.738C1247.63 998.292 1274.29 1030.59 1288.3 1072.19C1302.01 1112.61 1298.34 1162.31 1288.49 1206.51C1281.88 1235.87 1273.48 1263.64 1267.51 1291.05C1264.52 1304.8 1262.08 1318.55 1260.85 1332.27C1255.66 1387.28 1268.43 1442.71 1299.37 1487.24C1337.93 1542.73 1405.27 1577.19 1457.73 1581.07" stroke="#630000" stroke-miterlimit="10"/>
<path d="M339.083 67.5888C302.341 110.453 290.532 165.369 305.748 214.067C318.098 253.863 348.185 289.015 387.51 312.668C396.523 318.11 405.928 322.899 415.726 327.032C466.755 348.31 527.052 352.479 580.219 379.866C617.162 398.816 644.83 427.324 663.205 457.083C673.366 473.509 680.836 490.416 685.183 506.41C697.357 551.28 690.811 591.427 685.219 632.095C680.099 669.087 674.755 708.564 682.476 753.624C683.235 758.141 684.129 762.656 685.16 767.276C696.63 817.877 729.277 874.558 782.326 902.919C823.918 925.019 868.124 927.867 909.457 928.719C913.508 928.752 917.561 928.892 921.613 928.925C975.639 929.865 1031.02 930.78 1090.28 930.113C1133.61 929.633 1187.08 929.828 1227.94 956.042C1273.59 985.403 1294.76 1020.5 1305.52 1062.16C1315.86 1102.43 1312.02 1150.4 1304.05 1193.81C1298.78 1222.71 1292.4 1250.13 1288.58 1277.28C1286.68 1290.91 1285.58 1304.41 1285.42 1317.9C1285.08 1372.06 1302.68 1425.68 1338.28 1467.09C1382.58 1518.81 1455.74 1546.8 1509.13 1542.25" stroke="#630000" stroke-miterlimit="10"/>
<path d="M347.178 59.8866C310.322 103.832 299.621 160.238 317.415 209.643C331.801 250.049 364.723 285.148 406.865 307.777C416.548 312.992 426.622 317.444 437.089 321.242C491.464 340.947 554.812 342.146 609.595 369.288C647.75 388.108 675.304 417.697 692.357 448.991C701.859 466.292 708.267 484.19 711.283 501.179C719.864 548.921 707.835 591.974 696.888 635.115C686.951 674.462 676.923 716.183 681.973 762.804C682.464 767.433 683.092 772.169 683.855 776.901C692.793 829.276 726.41 887.341 782.945 914.343C827.219 935.423 874.881 935.402 919.263 933.176C923.715 932.986 928.03 932.69 932.348 932.502C990.485 929.374 1049.57 926.229 1111.73 921.84C1157.17 918.623 1213.3 916.396 1254.44 943.359C1298.87 972.635 1314.69 1010.43 1321.95 1052.04C1328.9 1092.05 1324.9 1138.51 1318.8 1181.13C1314.74 1209.47 1310.38 1236.63 1308.85 1263.52C1308.02 1277.02 1308.14 1290.4 1309.33 1303.65C1313.83 1356.97 1336.26 1408.87 1376.4 1447.18C1426.57 1495.02 1505.28 1516.75 1559.72 1503.66" stroke="#630000" stroke-miterlimit="10"/>
<path d="M355.405 52.1817C318.434 97.2078 308.976 155.101 329.213 205.216C345.634 246.123 381.39 281.17 426.353 302.992C436.572 307.981 447.317 312.205 458.453 315.667C516.037 333.694 582.438 332.032 638.836 358.928C678.07 377.62 705.508 408.289 721.507 441.005C730.351 459.182 735.695 477.962 737.516 496.053C742.37 546.669 724.992 592.519 708.692 638.24C693.935 679.834 679.223 723.8 681.469 772.09C681.694 776.941 682.054 781.789 682.684 786.632C689.087 840.671 723.81 900.119 783.832 925.87C830.787 945.928 881.908 943.038 929.47 937.625C934.187 937.106 938.768 936.59 943.484 936.071C1005.59 928.77 1068.52 921.669 1133.72 913.556C1181.27 907.603 1240.05 902.845 1281.48 930.666C1324.69 959.749 1335.16 1000.34 1338.91 1042.02C1342.48 1081.87 1338.31 1126.61 1334.1 1168.55C1331.24 1196.33 1328.9 1223.34 1329.66 1249.87C1330.04 1263.13 1331.24 1276.38 1333.64 1289.49C1342.98 1341.97 1370.24 1392.06 1415.05 1427.37C1471.09 1471.43 1555.49 1486.69 1610.86 1465.06" stroke="#630000" stroke-miterlimit="10"/>
<path d="M363.63 44.4763C326.543 90.5834 318.193 149.967 340.874 200.791C359.332 242.308 397.922 277.303 445.838 298.207C456.728 302.967 468.144 306.963 479.814 310.091C540.745 326.547 610.196 321.914 668.075 348.567C708.521 367.129 735.843 398.772 750.657 433.128C758.84 452.072 763.124 471.951 763.613 491.037C764.873 544.417 742.15 593.278 720.495 641.473C700.921 685.421 681.523 731.524 681.099 781.482C681.056 786.446 681.15 791.515 681.514 796.578C685.519 852.388 721.078 913.223 784.586 937.614C834.358 956.65 888.663 950.788 939.547 942.4C944.527 941.553 949.507 940.705 954.489 939.966C1020.71 928.597 1087.34 917.543 1155.58 905.598C1205.38 897.014 1266.54 889.731 1308.39 918.299C1350.51 947.186 1355.5 990.679 1355.74 1032.32C1355.93 1071.91 1351.6 1115.14 1349.26 1156.18C1347.6 1183.51 1347.29 1210.16 1350.34 1236.43C1351.8 1249.56 1354.34 1262.68 1357.82 1275.56C1372.14 1327.19 1404.09 1375.57 1453.57 1407.78C1515.34 1447.95 1605.44 1456.96 1661.86 1426.79" stroke="#630000" stroke-miterlimit="10"/>
<path d="M371.869 36.8853C334.666 83.9656 327.558 144.836 352.685 196.479C373.177 238.497 414.604 273.547 465.337 293.428C476.898 297.96 488.985 301.728 501.323 304.52C565.598 319.295 637.967 311.803 697.597 338.208C739.123 356.75 766.462 389.363 779.955 425.254C787.479 445.073 790.836 465.941 789.991 485.915C787.657 542.058 759.452 593.826 732.445 644.709C708.055 691.013 683.837 739.362 680.879 790.986C680.57 796.17 680.531 801.349 680.627 806.526C682.098 864.001 718.764 926.326 785.623 949.36C838.076 967.375 895.837 958.536 949.771 947.179C955.017 946.111 960.396 944.932 965.64 943.756C1035.84 928.43 1106.31 913.206 1177.58 897.536C1229.49 886.216 1293.31 876.402 1335.31 905.831C1376.21 934.525 1375.99 980.811 1372.58 1022.52C1369.39 1061.95 1364.9 1103.57 1364.43 1143.82C1364.11 1170.58 1365.69 1197.1 1371.03 1223C1373.7 1236 1377.31 1248.88 1382.14 1261.63C1401.31 1312.41 1438.09 1358.98 1492.24 1388.19C1559.88 1424.58 1655.66 1427.23 1713 1388.51" stroke="#630000" stroke-miterlimit="10"/>
<path d="M380.091 29.1794C342.773 77.3406 336.773 139.701 364.343 192.053C391.914 244.406 452.621 285.247 522.547 298.946C590.169 312.149 665.586 301.58 726.7 327.957C792.986 356.504 821.88 421.994 815.951 480.901C810.022 539.808 776.2 594.485 744.111 647.944C711.886 701.405 680.246 757.228 679.317 816.366C678.389 875.504 715.893 939.324 786.372 960.996C847.073 979.614 914.827 963.577 976.505 947.545C1050.81 928.15 1124.99 908.866 1199.3 889.472C1253.45 875.413 1319.79 863.071 1362.07 893.358C1401.76 921.859 1396.19 970.941 1389.26 1012.71C1378.46 1078.08 1372.68 1145.18 1391.56 1209.56C1410.45 1273.94 1457.23 1335.97 1530.62 1368.48C1604 1401 1705.46 1397.28 1763.86 1350.03" stroke="#630000" stroke-miterlimit="10"/>
<path d="M357.045 67.6907C330.647 115.002 335.207 171.557 367.216 215.735C399.228 260.022 458.537 290.964 529.993 299.78C597.659 308.127 674.279 296.888 737.529 321.932C805.68 349.149 839.011 413.586 834.72 473.433C830.658 531.119 797.622 584.487 768.085 637.251C736.977 692.633 707.81 750.784 706.645 811.761C705.572 870.362 740.907 933.682 809.78 956.14C869.145 975.537 936.786 960.689 997.932 945.099C1071.04 926.374 1143.73 907.009 1216.83 888.176C1270.99 874.334 1337.21 862.857 1379.49 893.143C1419.45 921.747 1414.82 970.92 1408.18 1012.9C1397.89 1077.07 1391.55 1142.89 1410 1206.09C1428.46 1269.51 1474.82 1330.25 1547.11 1362.25C1619.4 1394.24 1718.85 1390.89 1777.15 1345.36" stroke="#630000" stroke-miterlimit="10"/>
<path d="M333.99 106.093C318.381 152.665 333.63 203.196 370.081 239.309C406.534 275.529 464.311 296.682 537.297 300.615C605.012 304.322 682.828 292.091 748.218 316.015C818.231 341.688 855.869 405.397 853.346 465.967C851.014 522.218 819.038 574.488 792.053 626.557C762.063 683.968 735.367 744.339 734.104 807.259C733.02 865.321 766.05 928.145 833.453 951.385C891.617 971.56 958.875 957.906 1019.76 942.752C1091.66 924.696 1163 905.249 1234.76 886.98C1288.92 873.353 1355.03 862.85 1397.31 893.028C1437.54 921.735 1433.86 971.106 1427.35 1013.3C1417.45 1076.27 1410.81 1140.7 1428.71 1202.72C1446.74 1265.07 1492.81 1324.74 1564.01 1356.11C1635.21 1387.47 1732.64 1384.48 1790.83 1340.68" stroke="#630000" stroke-miterlimit="10"/>
<path d="M310.944 144.603C306.256 190.325 331.925 234.837 372.819 262.992C413.576 291.041 469.959 302.51 544.607 301.45C612.101 300.522 691.385 287.292 758.779 310.101C830.656 334.336 872.597 397.103 871.845 458.503C871.243 513.427 840.462 564.596 815.758 615.868C787.02 675.305 762.661 737.899 761.162 802.657C760.066 860.072 790.794 922.507 856.592 946.64C913.556 967.592 980.568 955.237 1040.92 940.417C1111.62 922.923 1181.47 903.503 1252.03 885.904C1306.33 872.598 1372.18 862.854 1414.46 893.033C1454.96 921.842 1452.23 971.304 1446 1013.82C1436.75 1075.59 1429.41 1138.73 1446.88 1199.47C1464.49 1260.85 1510.13 1319.34 1580.23 1349.98C1650.34 1380.72 1745.62 1378.09 1803.84 1336.01" stroke="#630000" stroke-miterlimit="10"/>
<path d="M287.891 183.114C294.124 227.986 330.081 266.589 375.686 286.673C420.612 306.554 475.467 308.45 551.91 302.285C619.186 296.83 699.934 282.495 769.466 304.077C843.073 326.986 892.962 388.742 890.47 450.929C888.22 504.374 862.149 554.7 839.589 605.069C812.105 666.641 790.081 731.349 788.481 797.943C787.24 854.821 815.798 916.757 879.991 941.675C935.619 963.407 1002.38 952.243 1062.34 937.862C1131.83 921.038 1200.19 901.322 1269.69 884.498C1323.99 871.3 1389.59 862.639 1432 892.6C1472.77 921.512 1470.99 971.172 1464.9 1013.79C1456.16 1074.26 1448.4 1136.11 1465.44 1195.67C1482.62 1255.99 1527.97 1313.3 1596.99 1343.41C1666 1373.53 1759.26 1371.26 1817.39 1331.02" stroke="#630000" stroke-miterlimit="10"/>
<path d="M264.84 221.62C281.994 265.643 328.101 298.232 378.42 310.353C427.38 322.067 480.846 314.603 559.218 303.224C626.279 293.458 708.49 277.908 780.159 298.264C855.63 319.736 910.362 380.539 909.101 443.567C908.042 495.695 883.84 544.908 863.559 594.371C837.465 658.075 817.641 724.9 815.941 793.438C814.691 849.777 840.944 911.216 903.666 936.916C958.091 959.318 1024.61 949.453 1084.17 935.511C1152.46 919.248 1219.47 899.558 1287.62 883.298C1341.93 870.315 1407.41 862.52 1449.69 892.484C1490.73 921.499 1489.9 971.249 1483.94 1014.19C1475.73 1073.46 1467.4 1134.03 1484.01 1192.31C1500.77 1251.65 1545.83 1307.78 1613.62 1337.27C1681.4 1366.76 1772.65 1364.96 1830.67 1326.34" stroke="#630000" stroke-miterlimit="10"/>
<path d="M241.793 260.026C269.735 303.309 326.13 329.99 381.292 333.93C434.291 337.694 486.366 320.761 566.528 303.955C633.241 289.988 717.045 273.006 790.855 292.244C868.189 312.279 922.77 372.221 927.735 436.105C931.645 486.738 905.674 535.228 887.4 583.683C862.698 649.627 845.073 718.569 843.136 788.838C841.873 844.529 865.822 905.472 926.941 932.064C980.029 955.246 1046.3 946.681 1105.46 933.069C1172.55 917.585 1238.07 897.706 1305.02 882.008C1359.34 869.241 1424.69 862.419 1466.97 892.274C1508.29 921.392 1508.4 971.233 1502.72 1014.49C1495.02 1072.57 1486.26 1131.74 1502.31 1188.84C1518.65 1247.12 1563.28 1302.18 1629.98 1331.04C1696.68 1359.9 1785.9 1358.46 1843.81 1321.57" stroke="#630000" stroke-miterlimit="10"/>
<path d="M218.744 298.539C257.608 340.972 324.158 361.962 384.028 357.616C440.93 353.432 491.886 327.134 573.703 304.903C640.205 286.84 725.468 268.429 801.413 286.332C880.479 305.04 939.226 363.935 946.232 428.643C951.465 477.849 927.368 525.442 911.237 572.994C888.062 641.176 872.365 712.131 870.461 784.233C869.054 839.388 890.698 899.834 950.348 927.317C1002.24 951.276 1068.26 943.903 1126.89 930.732C1192.77 915.917 1256.81 895.958 1322.69 880.819C1377.01 868.376 1442.11 862.314 1484.52 892.167C1526.11 921.495 1527.17 971.318 1521.63 1014.79C1514.45 1071.56 1505.26 1129.56 1520.75 1185.48C1536.66 1242.8 1581 1296.56 1646.61 1324.91C1712.22 1353.25 1799.28 1352.07 1857.23 1317.01" stroke="#630000" stroke-miterlimit="10"/>
<path d="M195.691 337.049C245.475 378.632 322.182 393.932 386.894 381.296C447.837 369.27 497.404 333.612 581.141 305.735C647.434 283.684 734.017 263.63 812.237 280.412C893.031 297.686 955.676 355.645 964.858 421.176C971.415 468.956 949.464 515.753 935.069 562.302C913.421 632.721 899.786 705.688 897.647 779.628C896.227 834.136 915.569 894.193 973.748 922.459C1024.3 947.198 1090.08 941.123 1148.44 928.282C1213.12 914.028 1275.81 894.094 1340.35 879.519C1394.81 867.29 1459.66 862.203 1502.07 891.948C1543.93 921.379 1545.94 971.401 1540.67 1015.08C1533.87 1070.66 1524.25 1127.26 1539.45 1182C1554.94 1238.25 1598.99 1290.94 1663.37 1318.66C1727.88 1346.38 1812.93 1345.56 1870.78 1312.23" stroke="#630000" stroke-miterlimit="10"/>
<path d="M172.639 375.561C233.211 416.405 320.21 426.011 389.627 404.981C454.746 385.218 503.06 340.197 588.311 306.574C654.53 280.533 742.435 258.944 822.657 274.502C905.317 290.447 971.993 347.36 983.351 413.714C991.231 460.067 971.289 505.964 958.903 551.613C939.054 624.371 927.21 699.247 924.971 775.131C923.542 829.1 940.579 888.66 997.152 917.711C1046.5 943.227 1112.03 938.344 1169.86 925.944C1233.34 912.36 1294.54 892.345 1357.88 878.44C1412.34 866.426 1477.08 862.205 1519.48 891.95C1561.62 921.484 1564.57 971.596 1559.45 1015.6C1553.17 1069.98 1543.12 1125.3 1557.75 1178.75C1572.82 1234.03 1616.44 1285.44 1679.86 1312.64C1743.29 1339.84 1826.18 1339.38 1884.06 1307.67" stroke="#630000" stroke-miterlimit="10"/>
<path d="M149.588 414.075C221.081 454.069 318.508 458.088 392.495 428.666C461.79 401.057 508.854 346.889 595.754 307.518C661.9 277.594 751.125 254.363 833.483 268.587C918.008 283.202 988.581 339.072 1002.11 406.249C1011.19 451.285 993.657 496.274 982.873 540.922C964.82 615.913 954.769 692.805 952.294 770.528C950.72 823.96 965.587 883.021 1020.69 912.962C1068.71 939.258 1133.99 935.567 1191.42 923.605C1253.7 910.691 1313.41 890.596 1375.68 877.25C1430.15 865.56 1494.76 862.204 1537.03 891.843C1579.44 921.481 1583.34 971.682 1578.49 1015.9C1572.59 1068.98 1562.11 1123.01 1576.32 1175.28C1590.96 1229.49 1634.29 1279.83 1696.49 1306.4C1758.69 1332.97 1839.7 1332.87 1897.34 1303" stroke="#630000" stroke-miterlimit="10"/>
<path d="M126.54 452.476C208.955 491.621 316.674 490.055 395.232 452.241C468.704 416.895 514.651 353.47 602.928 308.247C669.002 274.441 759.546 249.567 844.042 262.564C930.298 275.853 1004.63 330.79 1020.48 398.787C1030.74 442.398 1015.62 486.588 1006.58 530.233C990.593 607.559 982.063 686.365 979.488 765.923C977.901 818.708 990.466 877.38 1043.96 908.106C1090.78 935.18 1155.81 932.68 1212.85 921.157C1273.92 908.805 1332.29 888.735 1393.21 875.953C1447.82 864.476 1512.05 861.991 1554.45 891.628C1597.13 921.368 1601.85 971.77 1597.27 1016.2C1591.88 1068.08 1580.98 1120.82 1594.75 1171.81C1609.11 1225.06 1652.01 1274.21 1713.12 1300.16C1774.23 1326.1 1853.08 1326.37 1910.76 1298.22" stroke="#630000" stroke-miterlimit="10"/>
<path d="M103.492 490.985C196.828 529.279 314.975 522.125 398.101 475.812C475.749 432.621 520.583 360.154 610.369 308.97C676.642 271.276 768.101 244.767 854.869 256.535C942.991 268.495 1020.95 322.394 1039.24 391.209C1050.56 433.397 1037.99 476.784 1030.55 519.429C1016.77 599.087 1009.63 679.917 1006.81 761.207C1005.22 813.452 1015.48 871.628 1067.37 903.139C1112.98 930.99 1177.64 929.683 1234.27 918.6C1294.14 906.917 1351.02 886.767 1410.74 874.547C1465.36 863.393 1529.46 861.773 1571.87 891.302C1614.82 921.145 1620.48 971.638 1616.04 1016.38C1611.04 1067.07 1599.71 1118.42 1613.05 1168.23C1626.98 1220.51 1669.46 1268.38 1729.47 1293.7C1789.49 1319.02 1866.33 1319.65 1923.9 1293.23" stroke="#630000" stroke-miterlimit="10"/>
<path d="M80.4387 529.496C184.563 567.05 313.27 554.091 400.968 499.494C482.925 448.455 526.647 366.946 617.675 309.914C684.01 268.335 776.654 240.185 865.558 250.62C955.411 261.252 1037 314.221 1057.87 383.743C1070.24 424.618 1060.36 467.092 1054.52 508.736C1043.07 590.724 1037.18 673.473 1034.27 756.706C1032.53 808.307 1040.62 865.983 1091.04 898.492C1135.32 927.124 1199.73 927.008 1255.97 916.364C1314.63 905.135 1370.16 885.117 1428.54 873.462C1483.16 862.524 1547.15 861.769 1589.55 891.19C1632.77 921.136 1639.38 971.719 1635.22 1016.68C1630.6 1066.07 1618.97 1116.23 1631.76 1164.87C1645.26 1216.08 1687.45 1262.87 1746.23 1287.57C1805.02 1312.26 1879.85 1313.35 1937.45 1288.66" stroke="#630000" stroke-miterlimit="10"/>
<path d="M57.3873 568.006C172.433 604.711 311.433 586.167 403.701 523.177C489.971 464.399 532.577 373.741 624.845 310.751C691.381 265.393 785.075 235.605 875.979 244.708C967.564 254.122 1052.65 306.055 1076.23 376.282C1089.52 415.845 1082.46 457.403 1078.08 497.941C1069.11 582.15 1064.33 666.928 1061.19 751.999C1059.43 803.061 1065.22 860.24 1114.04 893.534C1157.12 922.943 1221.27 924.019 1277.12 913.813C1334.58 903.254 1388.62 883.372 1445.93 872.06C1500.69 861.551 1564.42 861.556 1606.82 890.87C1650.32 921.026 1657.61 971.597 1653.85 1016.87C1649.62 1065.06 1637.69 1113.83 1649.92 1161.29C1663 1211.54 1704.89 1257.15 1762.59 1281.22C1820.29 1305.4 1893.09 1306.74 1950.59 1283.78" stroke="#630000" stroke-miterlimit="10"/>
<path d="M34.3368 606.518C160.303 642.373 309.866 618.239 406.57 546.86C497.15 480.234 538.914 380.529 632.289 311.693C699.157 262.445 793.764 230.914 886.808 238.899C980.257 246.875 1068.57 298.101 1094.99 368.923C1109.21 407.174 1104.96 447.709 1102.19 487.355C1095.96 573.886 1091.9 660.592 1088.78 747.497C1087.02 798.02 1090.5 854.702 1137.71 888.781C1179.46 918.97 1243.36 921.238 1298.81 911.471C1355.07 901.473 1407.76 881.508 1463.74 870.976C1518.5 860.683 1581.98 861.556 1624.51 890.867C1668.28 921.126 1676.51 971.895 1673.04 1017.38C1669.18 1064.38 1656.83 1111.86 1668.76 1158.03C1681.42 1207.21 1722.88 1251.64 1779.49 1275.19C1836.1 1298.74 1906.74 1300.45 1964.14 1279.21" stroke="#630000" stroke-miterlimit="10"/>
<path d="M11.2865 644.917C148.039 679.925 308.163 650.093 409.304 570.433C504.059 495.961 544.98 387.21 639.46 312.42C706.526 259.284 802.048 226.119 897.362 232.766C992.677 239.414 1084.08 289.827 1113.49 361.348C1128.62 398.288 1127.33 437.905 1125.89 476.555C1122.54 565.298 1119.19 654.041 1115.97 742.782C1114.06 792.66 1115.37 848.952 1161.12 883.813C1201.66 914.671 1265.32 918.238 1320.24 908.912C1375.29 899.584 1426.49 879.539 1481.26 869.569C1536.03 859.599 1599.39 861.229 1641.79 890.543C1685.83 920.905 1695.01 971.764 1691.67 1017.46C1688.33 1063.16 1675.55 1109.35 1686.92 1154.35C1699.16 1202.56 1740.33 1245.81 1795.84 1268.73C1851.36 1291.66 1919.99 1293.73 1977.28 1274.32" stroke="#630000" stroke-miterlimit="10"/>
</svg>
